<svg width="24" height="24" viewBox="0 0 24 24" fill="none" xmlns="http://www.w3.org/2000/svg">
<g clip-path="url(#clip0_826_69132)">
<path d="M11.9297 7C16.9003 7 20.9297 5.65685 20.9297 4C20.9297 2.34315 16.9003 1 11.9297 1C6.95912 1 2.92969 2.34315 2.92969 4C2.92969 5.65685 6.95912 7 11.9297 7Z" stroke="white" stroke-width="2" stroke-linecap="round" stroke-linejoin="round"/>
<path d="M20.9297 11C20.9297 12.66 16.9297 14 11.9297 14C6.92969 14 2.92969 12.66 2.92969 11" stroke="white" stroke-width="2" stroke-linecap="round" stroke-linejoin="round"/>
<path d="M2.92969 4V18C2.92969 19.66 6.92969 21 11.9297 21C16.9297 21 20.9297 19.66 20.9297 18V4" stroke="white" stroke-width="2" stroke-linecap="round" stroke-linejoin="round"/>
</g>
<defs>
<clipPath id="clip0_826_69132">
<rect width="24" height="24" fill="white"/>
</clipPath>
</defs>
</svg>
